HIERARCHY
ROOT Hips
{
    OFFSET 0.000000 0.000000 0.000000
    CHANNELS 6 Xposition Yposition Zposition Zrotation Xrotation Yrotation
    JOINT Spine
    {
        OFFSET -0.000000 0.084758 0.000000
        CHANNELS 3 Zrotation Xrotation Yrotation
        JOINT Spine1
        {
            OFFSET -0.000000 0.191147 0.000000
            CHANNELS 3 Zrotation Xrotation Yrotation
            JOINT Neck
            {
                OFFSET -0.000000 0.190362 0.017306
                CHANNELS 3 Zrotation Xrotation Yrotation
                JOINT Head
                {
                    OFFSET -0.000000 0.137636 -0.018234
                    CHANNELS 3 Zrotation Xrotation Yrotation
                    End Site
                    {
                        OFFSET -0.000000 0.192337 0.000000
                    }
                }
            }
            JOINT LeftShoulder
            {
                OFFSET 0.036871 0.177698 0.000387
                CHANNELS 3 Zrotation Xrotation Yrotation
                JOINT LeftArm
                {
                    OFFSET 0.095382 0.000000 0.000000
                    CHANNELS 3 Zrotation Xrotation Yrotation
                    JOINT LeftForeArm
                    {
                        OFFSET 0.293961 0.000000 0.000000
                        CHANNELS 3 Zrotation Xrotation Yrotation
                        JOINT LeftHand
                        {
                            OFFSET 0.232729 0.000000 0.000000
                            CHANNELS 3 Zrotation Xrotation Yrotation
                            End Site
                            {
                                OFFSET 0.136753 0.000000 0.000000
                            }
                        }
                    }
                }
            }
            JOINT RightShoulder
            {
                OFFSET -0.036027 0.177698 0.000387
                CHANNELS 3 Zrotation Xrotation Yrotation
                JOINT RightArm
                {
                    OFFSET -0.095382 0.000000 0.000000
                    CHANNELS 3 Zrotation Xrotation Yrotation
                    JOINT RightForeArm
                    {
                        OFFSET -0.293961 0.000000 0.000000
                        CHANNELS 3 Zrotation Xrotation Yrotation
                        JOINT RightHand
                        {
                            OFFSET -0.232729 0.000000 0.000000
                            CHANNELS 3 Zrotation Xrotation Yrotation
                            End Site
                            {
                                OFFSET -0.136753 0.000000 0.000000
                            }
                        }
                    }
                }
            }
        }
    }
    JOINT LeftUpLeg
    {
        OFFSET 0.091168 0.000000 0.000000
        CHANNELS 3 Zrotation Xrotation Yrotation
        JOINT LeftLeg
        {
            OFFSET -0.000000 -0.426795 0.000000
            CHANNELS 3 Zrotation Xrotation Yrotation
            JOINT LeftFoot
            {
                OFFSET -0.000000 -0.358392 0.000000
                CHANNELS 3 Zrotation Xrotation Yrotation
                JOINT LeftToeBase
                {
                    OFFSET -0.000000 -0.059259 0.136753
                    CHANNELS 3 Zrotation Xrotation Yrotation
                    End Site
                    {
                        OFFSET -0.000000 0.000000 0.036467
                    }
                }
            }
        }
    }
    JOINT RightUpLeg
    {
        OFFSET -0.091168 0.000000 0.000000
        CHANNELS 3 Zrotation Xrotation Yrotation
        JOINT RightLeg
        {
            OFFSET -0.000000 -0.426795 0.000000
            CHANNELS 3 Zrotation Xrotation Yrotation
            JOINT RightFoot
            {
                OFFSET -0.000000 -0.358392 0.000000
                CHANNELS 3 Zrotation Xrotation Yrotation
                JOINT RightToeBase
                {
                    OFFSET -0.000000 -0.059259 0.136753
                    CHANNELS 3 Zrotation Xrotation Yrotation
                    End Site
                    {
                        OFFSET -0.000000 0.000000 0.036467
                    }
                }
            }
        }
    }
}
MOTION
Frames:    8
Frame Time:    0.008333    
2.354069    0.886220    0.234244    0.637798    2.998486    -178.983170    -5.051899    6.710920    -3.971922    7.830880    1.405016    -1.519608    5.485351    17.122860    -25.607183    12.199683    11.393219    -26.233992    11.776394    5.305987    2.279613    -31.715174    7.355567    12.563308    26.931232    -3.871247    -13.470890    8.620190    -0.172045    6.110249    -10.209826    1.532304    -9.387314    36.010479    -1.327570    -14.255047    -22.547195    -23.150211    13.658031    -20.102261    -17.997944    -15.526778    -3.549654    -0.675656    1.834798    -1.883537    25.812624    1.914996    11.522704    -19.891085    21.006762    -0.173645    5.410691    0.315769    -17.087187    -17.861307    -1.571937    7.589859    38.309429    7.393601    -1.278593    -10.851880    -22.618462    0.094933    -14.349659    11.708299    
2.355493    0.886955    0.237691    0.881402    2.968873    179.896149    -5.090436    6.646626    -4.124277    8.272752    1.318027    -1.569661    5.265454    17.396652    -25.782484    12.481367    11.304752    -26.388098    11.459691    5.134548    1.933617    -31.676706    7.597481    12.982681    27.163269    -4.036124    -13.496311    8.480168    -0.309945    6.104650    -10.459591    1.528719    -9.673658    35.508526    -1.928099    -14.279594    -22.241766    -22.552959    14.125580    -18.995796    -17.567350    -14.964686    -3.359324    -0.879542    1.835946    -2.010311    25.716309    3.047301    11.266480    -19.677162    20.777763    -0.313876    5.160656    0.734103    -17.139908    -17.027954    -0.671949    8.455557    38.824436    5.621789    -1.368639    -10.753613    -22.513691    0.158558    -14.737020    11.650363    
2.356780    0.887661    0.241427    1.129127    2.928584    178.675461    -4.804880    6.777966    -4.498288    8.032164    0.999052    -1.665285    5.970438    16.866116    -25.732075    11.358417    11.902976    -26.452776    11.640653    5.336638    2.295682    -31.593592    7.522748    12.907236    27.120464    -4.077311    -13.649883    9.150625    -0.296121    5.941319    -10.238846    1.503140    -9.459825    35.207020    -1.893207    -14.355797    -22.372108    -22.605473    14.221485    -19.137213    -17.569393    -14.961957    -3.183378    -1.089287    1.998518    -2.074380    25.597383    4.039374    11.035763    -19.396873    20.739172    -0.341939    4.950433    0.826866    -17.163258    -16.188864    0.266689    9.224607    39.172867    3.549052    -1.185677    -10.913503    -22.196236    0.062369    -14.278659    12.112428    
2.358103    0.888295    0.244606    1.360529    2.950191    177.524078    -4.606562    6.755086    -4.723775    7.859690    1.043850    -1.737685    6.399569    16.799032    -25.843681    11.184336    11.840361    -26.569656    12.031300    5.371236    2.499554    -31.812281    7.525298    12.720630    27.315830    -4.064835    -13.696878    9.353813    -0.237651    5.929004    -9.993565    1.472569    -9.464759    35.104824    -1.562911    -14.344446    -22.882408    -22.975603    13.938165    -19.145960    -17.920290    -15.101121    -2.966748    -1.198736    1.873412    -2.338192    25.508324    5.020128    10.881690    -19.194094    20.961216    -0.369931    4.997608    0.906089    -17.270950    -15.212215    1.089568    9.990344    39.433540    1.969217    -1.297129    -10.815876    -22.215607    0.106173    -14.449803    11.795105    
2.359662    0.888782    0.247889    1.657770    3.035761    176.398346    -4.561707    6.835277    -4.816832    8.272149    1.003473    -1.770007    5.772828    17.726017    -26.115480    12.487912    11.065213    -26.687553    11.756024    5.427003    2.351938    -31.726179    7.481194    12.622171    27.516878    -4.079669    -13.644066    9.158453    -0.207702    6.459462    -10.271527    1.449582    -9.734830    35.041367    -1.347664    -14.385399    -23.168421    -23.008396    13.998117    -19.006428    -17.921450    -15.127702    -2.681808    -1.286665    1.796113    -2.527632    25.525068    5.879420    10.702712    -19.038607    21.208118    -0.415931    4.999629    1.040280    -17.287066    -14.107115    1.812156    10.526945    39.587173    -0.186656    -1.214591    -10.813885    -21.533476    0.097298    -14.214007    11.267248    
2.361020    0.889344    0.250874    1.842667    3.126271    175.196167    -4.398258    6.754291    -5.026875    8.171356    1.217143    -1.850104    5.926149    17.716290    -26.196184    12.394000    11.093299    -26.777016    11.775687    5.346413    2.438658    -31.631634    7.495777    12.617995    27.517265    -3.990298    -13.836946    8.903898    -0.116722    6.047259    -10.242158    1.302524    -9.720042    34.639824    -1.761499    -14.475867    -22.888069    -22.895975    14.320800    -19.188513    -17.771471    -15.011821    -2.536393    -1.273981    1.929544    -2.615016    25.392067    6.413064    10.579358    -18.777115    21.651714    -0.423346    5.075007    1.057533    -17.509527    -13.004261    2.553315    11.127689    39.625854    -1.690198    -1.063275    -10.748179    -21.399458    0.068860    -14.132345    11.561447    
2.362797    0.889732    0.254230    2.041202    3.181506    174.147980    -4.398333    6.906073    -5.235024    8.402531    1.074303    -1.913460    6.054716    17.701389    -26.345652    12.200962    11.122986    -26.942827    11.796187    5.331148    2.150249    -31.778774    7.433533    12.886845    27.654224    -3.999126    -13.947098    8.654174    -0.093245    6.052501    -10.293056    1.429482    -9.859718    34.464790    -1.796154    -14.380450    -23.102980    -22.949656    14.272626    -19.457655    -17.742338    -15.207882    -2.315585    -1.460786    2.006949    -2.722678    25.555290    7.130481    10.443048    -18.612700    21.799721    -0.509637    5.004422    1.313537    -17.671164    -11.893186    3.216197    11.596608    39.590023    -2.884160    -0.992523    -10.355069    -21.741793    0.074968    -14.097642    11.351013    
2.364588    0.890178    0.257712    2.296394    3.207542    173.058823    -4.261199    7.023023    -5.386728    8.481049    1.009560    -1.958550    6.170579    17.692043    -26.505297    12.196293    11.094699    -27.106756    11.885592    5.193431    2.265787    -31.737986    7.414699    12.628831    27.613894    -3.878653    -14.080669    8.564675    0.039749    5.904336    -10.309335    1.437576    -9.945332    34.203037    -1.935879    -14.479369    -23.077225    -22.731188    14.325317    -18.878607    -17.634069    -14.903944    -1.940448    -1.651657    2.028496    -3.061659    25.703140    8.118163    10.273442    -18.540842    21.858250    -0.440916    5.274004    1.096989    -17.805008    -10.810762    3.833138    12.053497    39.432148    -4.024626    -1.508031    -9.785363    -22.100401    0.172373    -14.724651    11.328076    
